<svg xmlns="http://www.w3.org/2000/svg" width="166" height="119" fill="none"><path fill="#A2B2BF" d="M135.207 10.656H29.117c-5.946 0-10.766 4.82-10.766 10.766V88.86c0 5.946 4.82 10.766 10.766 10.766h106.09c5.946 0 10.766-4.82 10.766-10.766V21.422c0-5.946-4.82-10.766-10.766-10.766Z"/><path fill="#EDF2F4" d="M135.872 13.324H28.457a7.642 7.642 0 0 0-7.642 7.641v68.362a7.642 7.642 0 0 0 7.642 7.641h107.415a7.641 7.641 0 0 0 7.641-7.641V20.966a7.641 7.641 0 0 0-7.641-7.642Z"/><path fill="#032F3C" d="M97.769 99.626H66.565v17.499h31.204V99.626Z"/><path fill="#A2B2BF" d="M36.648 116.202h91.033a2.464 2.464 0 0 1 2.464 2.464v.208H34.184v-.208a2.464 2.464 0 0 1 2.464-2.464ZM29.943 17.44h64.905A4.563 4.563 0 0 1 99.407 22v50.41a2.298 2.298 0 0 1-2.298 2.297H27.682a2.298 2.298 0 0 1-2.298-2.298V22a4.563 4.563 0 0 1 4.559-4.56Z"/><path fill="#032F3C" d="M92.079 21.427H32.015a2.963 2.963 0 0 0-2.963 2.963v34.494a2.963 2.963 0 0 0 2.963 2.962h60.064a2.963 2.963 0 0 0 2.962-2.962V24.39a2.963 2.963 0 0 0-2.962-2.963Z"/><path fill="#EDF2F4" d="M94.76 67.762H30.026a.628.628 0 0 0-.628.628v.106c0 .347.281.628.628.628H94.76a.628.628 0 0 0 .628-.628v-.106a.628.628 0 0 0-.628-.628Z"/><path fill="#A2B2BF" d="M97.109 77.55H27.682a2.298 2.298 0 0 0-2.298 2.298v8.925a2.298 2.298 0 0 0 2.298 2.298h69.427a2.298 2.298 0 0 0 2.298-2.298v-8.925a2.298 2.298 0 0 0-2.298-2.298ZM136.458 68.658h-30.36a2.298 2.298 0 0 0-2.298 2.298v17.821a2.298 2.298 0 0 0 2.298 2.299h30.36a2.298 2.298 0 0 0 2.298-2.299V70.956a2.298 2.298 0 0 0-2.298-2.298Z"/><path fill="#F2A057" d="M136.458 43.047h-30.36a2.298 2.298 0 0 0-2.298 2.298v17.821a2.298 2.298 0 0 0 2.298 2.298h30.36a2.298 2.298 0 0 0 2.298-2.298V45.345a2.298 2.298 0 0 0-2.298-2.298Z"/><path fill="#A2B2BF" d="M136.458 17.44h-30.36a2.298 2.298 0 0 0-2.298 2.298V37.56a2.298 2.298 0 0 0 2.298 2.298h30.36a2.298 2.298 0 0 0 2.298-2.298V19.738a2.298 2.298 0 0 0-2.298-2.298Z"/><path fill="#032F3C" d="M69.384 67.762H30.026a.628.628 0 0 0-.628.628v.106c0 .347.281.628.628.628h39.358a.628.628 0 0 0 .628-.628v-.106a.628.628 0 0 0-.628-.628Z"/><path fill="#032F3C" d="M68.369 70.084a1.643 1.643 0 1 0 0-3.286 1.643 1.643 0 0 0 0 3.285Z"/><path fill="#A2B2BF" d="M67.935 67.915v1.056c0 .102.115.166.203.111l.835-.526a.13.13 0 0 0 0-.221l-.835-.526a.133.133 0 0 0-.203.11v-.004ZM62.047 48.362c-3.71 0-6.723-3.018-6.723-6.728s3.018-6.728 6.723-6.728c3.706 0 6.728 3.018 6.728 6.728a6.735 6.735 0 0 1-6.728 6.728Zm0-12.99a6.27 6.27 0 0 0-6.262 6.262 6.27 6.27 0 0 0 6.262 6.262 6.27 6.27 0 0 0 6.262-6.262 6.27 6.27 0 0 0-6.262-6.262Z"/><path fill="#A2B2BF" d="M60.34 39.553v4.167c0 .41.452.66.798.439l3.29-2.082a.518.518 0 0 0 0-.876l-3.29-2.082a.52.52 0 0 0-.798.439v-.005Z"/><path fill="#F2A057" d="M87.174 82.626a1.426 1.426 0 1 0 0-2.852 1.426 1.426 0 0 0 0 2.852Z"/><path fill="#0397D6" d="M91.317 82.626a1.426 1.426 0 1 0 0-2.852 1.426 1.426 0 0 0 0 2.852Z"/><path fill="#032F3C" d="M95.457 82.626a1.426 1.426 0 1 0 0-2.852 1.426 1.426 0 0 0 0 2.852Z"/><path fill="#F2A057" d="m29.869 96.58-1.297 6.54-.29 1.472-.36 1.795-.291 1.472-.36 1.8-.295 1.472-1.37 6.931c-.093.48-.509.817-.998.817H12.08c-.485 0-.905-.342-.997-.817l-1.37-6.931-.291-1.472-.36-1.8-.296-1.472-.355-1.795-.295-1.472-1.292-6.54a1.018 1.018 0 0 1 .996-1.213h21.038c.637 0 1.117.586.997 1.214h.014Z"/><path fill="#D1864A" d="m28.572 103.12-.29 1.472H8.425l-.29-1.472h20.437ZM27.922 106.387l-.286 1.472H9.07l-.29-1.472h19.14ZM27.276 109.659l-.291 1.467H9.717l-.286-1.467h17.845Z"/><path fill="#032F3C" d="M18.333 95.358c0-.051-.296-5.012-1.832-10.3-.259-.89-.54-1.74-.836-2.547.079-.139.116-.231.116-.231s1.624-7.623-8.773-14.162c-1.098-.692-2.302-1.168-3.511-1.288-1.662-.161-3.581.277-3.498 3.235.152 5.38 7.47 10.517 7.47 10.517s2.423 2.196 5.907 2.82c1.02.184 1.634-.153 1.985-.504 2.173 6.027 2.57 12.377 2.575 12.487l.397-.023v-.004ZM28.688 73.037c-3.489.489-6.295 5.62-6.295 5.62s-1.255 1.736-1.407 4.047c-.042.619.175.983.406 1.2-.706 1.246-1.31 2.723-1.809 4.43-1.047 3.614-1.25 6.996-1.25 7.033l.272.014c.004-.092.415-6.664 3.013-11.31.152.087.272.115.272.115s5.076.503 8.574-6.733c.37-.766.591-1.583.582-2.377-.014-1.093-.439-2.307-2.358-2.04ZM156.813 7.514a9.102 9.102 0 0 0-3.586.729C151.238 3.49 146.545.149 141.068.149c-6.576 0-12.026 4.818-13.014 11.117-.055 0-.106-.01-.161-.01a6.863 6.863 0 0 0 0 13.724c1.74 0 3.322-.65 4.531-1.721a13.126 13.126 0 0 0 8.644 3.235c3.484 0 6.645-1.352 9.003-3.563a9.157 9.157 0 0 0 6.742 2.95A9.188 9.188 0 0 0 166 16.691a9.185 9.185 0 0 0-9.187-9.187v.009ZM151.049 82.846l.936-.616a2.689 2.689 0 0 1 3.72.768l.251.382a2.688 2.688 0 0 1-.768 3.72l-.937.616-3.202-4.87Z"/><path fill="#A2B2BF" d="m152.284 89.009 1.966-1.293-3.202-4.87-1.967 1.293 3.203 4.87Z"/><path fill="#F2A057" d="m117.058 105.201 3.202 4.868-3.322.226-2.589.176 1.186-2.312 1.523-2.958ZM149.083 84.137l-32.025 21.06 3.203 4.87 32.024-21.06-3.202-4.87Z"/><path fill="#D1864A" d="m149.763 85.172-32.025 21.061.523.794 32.024-21.06-.522-.795ZM151.083 87.181l-32.025 21.06.522.795 32.025-21.06-.522-.795Z"/><path fill="#032F3C" d="M116.398 109.123c.245.369.425.766.54 1.172l-2.589.176 1.186-2.312c.328.267.618.59.863.964Z"/></svg>