<svg xmlns="http://www.w3.org/2000/svg" width="138" height="107" fill="none"><path fill="#A2B2BF" d="M109.914 1.288H14.391C6.561 1.288.215 7.635.215 15.465V73.47c0 7.83 6.347 14.177 14.176 14.177h95.523c7.829 0 14.176-6.347 14.176-14.177V15.465c0-7.83-6.347-14.177-14.176-14.177Z"/><path fill="#EDF2F4" d="M110.275 3.872H14.038c-6.313 0-11.43 5.118-11.43 11.43V73.63c0 6.312 5.117 11.43 11.43 11.43h96.237c6.313 0 11.43-5.118 11.43-11.43V15.302c0-6.312-5.117-11.43-11.43-11.43Z"/><path fill="#A2B2BF" d="M29.917 30.494H11.015a4.23 4.23 0 0 0-4.23 4.23v13.502a4.23 4.23 0 0 0 4.23 4.23h18.902a4.23 4.23 0 0 0 4.23-4.23V34.724a4.23 4.23 0 0 0-4.23-4.23ZM61.236 30.494H42.334a4.23 4.23 0 0 0-4.23 4.23v13.502a4.23 4.23 0 0 0 4.23 4.23h18.902a4.23 4.23 0 0 0 4.23-4.23V34.724a4.23 4.23 0 0 0-4.23-4.23ZM49.416 57.011H11.015a4.23 4.23 0 0 0-4.23 4.23v13.502a4.23 4.23 0 0 0 4.23 4.23h38.401a4.23 4.23 0 0 0 4.23-4.23V61.241a4.23 4.23 0 0 0-4.23-4.23Z"/><path fill="#F2A057" d="M10.747 17.537a3.962 3.962 0 1 0 0-7.923 3.962 3.962 0 0 0 0 7.923Z"/><path fill="#0397D6" d="M22.266 17.537a3.962 3.962 0 1 0 0-7.923 3.962 3.962 0 0 0 0 7.923Z"/><path fill="#032F3C" d="M33.785 17.537a3.962 3.962 0 1 0 0-7.923 3.962 3.962 0 0 0 0 7.923ZM136.495 46.58l-24.07 56.276c-1.894 4.425-7.647 5.555-11.077 2.174L86.514 89.42a12.974 12.974 0 0 0-9.362-4.04l-25.013-.077c-4.97.13-8.411-4.936-6.453-9.508l24.018-56.141a6.837 6.837 0 0 1 4.4-3.877l21.109-5.294a14.707 14.707 0 0 0-.638 4.295c0 3.084.95 5.949 2.576 8.321a8.385 8.385 0 0 0 4.543 11.284c4.303 1.698 9.175-.406 10.877-4.713.065-.171.126-.338.179-.504a8.3 8.3 0 0 0 .309-3.844 8.373 8.373 0 0 0-5.201-6.525 8.374 8.374 0 0 0-8.346 1.271 11.087 11.087 0 0 1-1.333-5.282c0-1.91.5-3.787 1.386-5.388l9.195-2.304a7.742 7.742 0 0 1 8.435 3.381l3.291 5.217 2.702 4.283 12.686 20.109a6.827 6.827 0 0 1 .617 6.505l.004-.008Z"/><path fill="#EDF2F4" d="M112.709 50.611 77.94 72.407l-6.31-2.901 34.814-21.775 6.265 2.876v.005Zm-27.849 3.45c-9.642-4.429-3.23-18.382 6.412-13.949 9.642 4.43 3.23 18.382-6.412 13.95Zm1.881-4.087c3.82 1.755 6.497-4.064 2.674-5.819-3.824-1.755-6.497 4.063-2.674 5.819Zm6.713 29.885c-9.642-4.43-3.23-18.382 6.411-13.95 9.642 4.43 3.231 18.382-6.411 13.95Zm1.857-4.043c3.819 1.755 6.497-4.064 2.673-5.819-3.82-1.755-6.497 4.063-2.673 5.819Z"/><path fill="#F2A057" d="M124.135 14.778c0 1.824-.333 3.571-.943 5.189l-2.702-4.283c.025-.3.037-.601.037-.906 0-6.16-5.01-11.174-11.17-11.174-4.209 0-7.883 2.336-9.788 5.786a11.07 11.07 0 0 0-1.386 5.388c0 1.954.484 3.71 1.333 5.282 1.885 3.503 5.591 5.888 9.841 5.888 1.3 0 2.548-.224 3.706-.63a8.3 8.3 0 0 1-.309 3.844 14.826 14.826 0 0 1-3.393.394c-5.067 0-9.54-2.56-12.206-6.453a14.675 14.675 0 0 1-2.576-8.321c0-1.495.224-2.934.638-4.295C97.057 4.421 102.701 0 109.357 0c8.151 0 14.778 6.631 14.778 14.782v-.004Z"/></svg>