<svg xmlns="http://www.w3.org/2000/svg" width="109" height="107" fill="none"><path fill="#F2A057" d="M46.24 85.096.196 100.418V22.577l35.465-3.842c5.106-1.698 10.578 1.595 10.578 6.371v59.99Z"/><path fill="#7E94A3" d="m8.544 106.785-8.348-6.287V22.66l8.348 6.284v77.841Z"/><path fill="#032F3C" d="M8.544 95.213.196 88.93V34.229l8.348 6.287v54.697Z"/><path fill="#7E94A3" d="M8.544 88.138.196 81.851V41.307l8.348 6.288v40.543Z"/><path fill="#032F3C" d="M50.136.917 13.253 8.448a4.585 4.585 0 0 0-3.576 5.41l11.632 56.97a4.585 4.585 0 0 0 5.41 3.574l36.883-7.53a4.585 4.585 0 0 0 3.576-5.41L55.546 4.492a4.585 4.585 0 0 0-5.41-3.575Z"/><path fill="#F2A057" d="M46.96 11.698 20.41 17.12a1.384 1.384 0 0 0-1.078 1.633l.01.055a1.384 1.384 0 0 0 1.634 1.079l26.55-5.421a1.384 1.384 0 0 0 1.079-1.633l-.011-.055a1.384 1.384 0 0 0-1.633-1.079Z"/><path fill="#A2B2BF" d="m52.827 20.594-34.331 7.01a.942.942 0 0 0-.735 1.112l.009.043a.943.943 0 0 0 1.112.735l34.331-7.01a.943.943 0 0 0 .735-1.112l-.009-.043a.943.943 0 0 0-1.112-.735ZM54.054 26.61l-34.331 7.01a.942.942 0 0 0-.735 1.111l.009.043c.104.51.602.84 1.112.735l34.33-7.01a.943.943 0 0 0 .736-1.112l-.01-.042a.942.942 0 0 0-1.111-.735ZM55.284 32.629l-34.33 7.01a.942.942 0 0 0-.736 1.112l.01.043a.943.943 0 0 0 1.111.734l34.331-7.01a.942.942 0 0 0 .735-1.111l-.009-.043a.943.943 0 0 0-1.112-.735ZM56.515 38.644l-34.331 7.01a.943.943 0 0 0-.735 1.112l.009.043c.104.51.602.839 1.112.735l34.33-7.01a.943.943 0 0 0 .736-1.112l-.01-.043a.942.942 0 0 0-1.111-.735ZM57.741 44.663l-34.33 7.01a.942.942 0 0 0-.736 1.112l.01.043a.943.943 0 0 0 1.111.735l34.331-7.01a.943.943 0 0 0 .735-1.112l-.009-.043a.943.943 0 0 0-1.112-.735ZM58.972 50.679l-34.331 7.01a.943.943 0 0 0-.735 1.111l.009.043c.104.51.602.84 1.112.735l34.33-7.01a.942.942 0 0 0 .736-1.111l-.01-.043a.943.943 0 0 0-1.111-.735ZM60.199 56.694l-34.331 7.01a.943.943 0 0 0-.735 1.112l.008.043a.943.943 0 0 0 1.112.735l34.331-7.01a.942.942 0 0 0 .735-1.112l-.008-.043a.943.943 0 0 0-1.112-.735Z"/><path fill="#0397D6" d="M79.67 9.446 44.219 7.855a4.585 4.585 0 0 0-4.787 4.375l-2.468 54.99a4.585 4.585 0 0 0 4.375 4.787l35.453 1.591a4.585 4.585 0 0 0 4.787-4.374l2.468-54.992a4.585 4.585 0 0 0-4.375-4.786Z"/><path fill="#F2A057" d="m74.401 18.69-25.767-1.156a1.348 1.348 0 1 0-.121 2.694l25.768 1.156a1.348 1.348 0 1 0 .12-2.693Z"/><path fill="#A2B2BF" d="M77.773 28.286 44.418 26.79a.919.919 0 0 0-.96.877v.004a.919.919 0 0 0 .877.959l33.356 1.497a.919.919 0 0 0 .959-.877v-.004a.919.919 0 0 0-.877-.959ZM77.507 34.138l-33.355-1.497a.919.919 0 0 0-.96.877v.004a.919.919 0 0 0 .877.959l33.356 1.497a.919.919 0 0 0 .959-.877v-.004a.919.919 0 0 0-.877-.959ZM77.245 39.994l-33.356-1.497a.919.919 0 0 0-.959.877v.004a.919.919 0 0 0 .877.959l33.355 1.497a.919.919 0 0 0 .959-.877v-.004a.919.919 0 0 0-.876-.959ZM76.983 45.842l-33.356-1.497a.919.919 0 0 0-.959.877v.004a.919.919 0 0 0 .877.959L76.9 47.682a.919.919 0 0 0 .96-.877v-.004a.919.919 0 0 0-.877-.959ZM76.72 51.699 43.366 50.2a.919.919 0 0 0-.959.877v.004a.919.919 0 0 0 .876.959l33.356 1.497a.919.919 0 0 0 .959-.877v-.004a.919.919 0 0 0-.876-.958ZM76.458 57.55l-33.355-1.497a.919.919 0 0 0-.96.877v.004a.919.919 0 0 0 .877.959l33.356 1.497a.919.919 0 0 0 .959-.877v-.003a.919.919 0 0 0-.877-.96ZM76.196 63.407 42.841 61.91a.919.919 0 0 0-.96.876v.004a.919.919 0 0 0 .877.959l33.355 1.497a.919.919 0 0 0 .96-.876v-.004a.919.919 0 0 0-.877-.96Z"/><path fill="#032F3C" d="m104.303 24.066-38.13-8.656a4.585 4.585 0 0 0-5.486 3.456L47.35 77.612a4.585 4.585 0 0 0 3.456 5.487l38.13 8.655a4.585 4.585 0 0 0 5.487-3.456l13.335-58.746a4.584 4.584 0 0 0-3.456-5.486Z"/><path fill="#F2A057" d="m96.57 32.807-27.19-6.173a1.456 1.456 0 0 0-.644 2.84l27.19 6.171a1.456 1.456 0 0 0 .644-2.838Z"/><path fill="#A2B2BF" d="m98.311 43.656-35.19-7.989a.994.994 0 1 0-.44 1.94l35.19 7.988a.994.994 0 0 0 .44-1.939ZM96.911 49.834l-35.19-7.988a.994.994 0 1 0-.44 1.939l35.19 7.988a.994.994 0 0 0 .44-1.939ZM95.507 56.007l-35.19-7.988a.994.994 0 1 0-.44 1.939l35.19 7.988a.994.994 0 1 0 .44-1.939ZM94.107 62.185l-35.19-7.988a.994.994 0 1 0-.44 1.939l35.19 7.988a.994.994 0 1 0 .44-1.938ZM92.704 68.359l-35.19-7.989a.994.994 0 0 0-.44 1.94l35.19 7.988a.994.994 0 0 0 .44-1.94ZM91.3 74.532l-35.19-7.988a.994.994 0 1 0-.44 1.939l35.19 7.988a.994.994 0 0 0 .44-1.939ZM89.9 80.71l-35.19-7.988a.994.994 0 1 0-.44 1.939l35.19 7.988a.994.994 0 0 0 .44-1.939Z"/><path fill="#A2B2BF" d="M53.648 91.872 8.543 107V29.158l23.726 5.58c12.614 2.967 21.38 12.96 21.38 24.377v32.757Z"/></svg>