<svg xmlns="http://www.w3.org/2000/svg" width="172" height="119" fill="none"><path fill="#A2B2BF" d="M160.483 0H12.197C6.007 0 .988 5.018.988 11.208v96.584c0 6.19 5.018 11.208 11.209 11.208h148.286c6.19 0 11.208-5.018 11.208-11.208V11.208c0-6.19-5.018-11.208-11.208-11.208Z"/><path fill="#EDF2F4" d="M160.44 3.565H12.24a7.956 7.956 0 0 0-7.956 7.956v95.963a7.956 7.956 0 0 0 7.956 7.956h148.2a7.956 7.956 0 0 0 7.955-7.956V11.521a7.956 7.956 0 0 0-7.955-7.956Z"/><path fill="#F2A057" d="M44.49 75.1h-7.009V85h7.01v-9.9Z"/><path fill="#F2A057" d="M40.988 76.396c6.065 0 10.982-4.917 10.982-10.982 0-6.065-4.917-10.982-10.982-10.982-6.065 0-10.982 4.917-10.982 10.982 0 6.065 4.917 10.982 10.982 10.982Z"/><path fill="#032F3C" d="m43.17 78.376-2.182 5.04-2.181-5.04c-9.215 1.08-16.368 8.911-16.368 18.414h37.093c0-9.507-7.153-17.333-16.368-18.414h.005ZM48.9 53.38a9.706 9.706 0 0 0-3.905-3.21 8.957 8.957 0 0 0-.702-.288 10.212 10.212 0 0 0-1.715-.447 9.64 9.64 0 0 0-1.59-.13c-.543 0-1.071.048-1.59.13a9.368 9.368 0 0 0-2.417.735 9.753 9.753 0 0 0-3.906 3.21 5.346 5.346 0 0 0-.547 10.444 5.345 5.345 0 0 0 5.972-2.407 5.32 5.32 0 0 0 2.493.615c.898 0 1.748-.226 2.493-.615a5.345 5.345 0 0 0 5.972 2.407 5.346 5.346 0 0 0-.548-10.444h-.01Z"/><path fill="#032F3C" fill-rule="evenodd" d="M91.83 63.69H62.69a3.672 3.672 0 0 0-3.661 3.66v20.5a3.672 3.672 0 0 0 3.66 3.66h11.214l-1.451 5.126a.975.975 0 0 0 .937 1.24c.408 0 .792-.264.936-.711l1.605-5.655h2.647l1.61 5.674a.98.98 0 0 0 .936.692c.082 0 .183 0 .265-.02a.981.981 0 0 0 .672-1.2L80.6 91.51h11.218c2.012 0 3.66-1.648 3.68-3.66v-20.5a3.672 3.672 0 0 0-3.661-3.66h-.005Zm1.73 24.14c0 .956-.773 1.73-1.73 1.73H75.339a1.032 1.032 0 0 0-.298 0H62.69c-.956 0-1.73-.774-1.73-1.73v-20.5c0-.955.774-1.729 1.73-1.729H91.83c.956 0 1.73.774 1.73 1.73v20.5Z" clip-rule="evenodd"/><path fill="#F2A057" d="M16.405 95.858h139.067a6.832 6.832 0 0 1 6.827 6.827 4.86 4.86 0 0 1-4.857 4.857H14.435a4.86 4.86 0 0 1-4.857-4.857 6.832 6.832 0 0 1 6.827-6.827Z"/><path fill="#F2A057" fill-rule="evenodd" d="M126.532 24.506a1.8 1.8 0 0 1-1.802-1.801v-7.279a1.8 1.8 0 0 1 1.802-1.801c.999 0 1.801.802 1.801 1.801v7.279c.039.994-.768 1.801-1.801 1.801ZM138.369 27.687a2.01 2.01 0 0 1-.917-.23c-.88-.5-1.149-1.61-.654-2.49l3.642-6.322c.499-.879 1.609-1.148 2.488-.653.879.5 1.149 1.61.654 2.488l-3.642 6.323c-.346.538-.956.879-1.571.879v.005ZM147.031 36.344a1.788 1.788 0 0 1-1.571-.918 1.84 1.84 0 0 1 .654-2.488l6.322-3.642c.879-.5 1.994-.192 2.488.654.5.879.193 1.993-.653 2.488l-6.322 3.642c-.308.192-.615.269-.918.269v-.005ZM157.49 48.148h-7.279a1.799 1.799 0 0 1-1.801-1.802c0-1 .802-1.801 1.801-1.801h7.279c.994 0 1.801.802 1.801 1.801 0 1-.802 1.802-1.801 1.802ZM153.354 63.627c-.308 0-.615-.077-.918-.23l-6.322-3.642c-.88-.5-1.149-1.61-.654-2.489.495-.88 1.61-1.148 2.489-.653l6.322 3.641c.879.5 1.148 1.61.654 2.489-.346.538-.957.88-1.571.88v.004ZM142.011 74.931a1.788 1.788 0 0 1-1.571-.917l-3.642-6.323a1.84 1.84 0 0 1 .654-2.488 1.84 1.84 0 0 1 2.488.653l3.642 6.322a1.84 1.84 0 0 1-.654 2.489 1.695 1.695 0 0 1-.917.269v-.005ZM126.532 79.106a1.8 1.8 0 0 1-1.802-1.801v-7.279a1.8 1.8 0 0 1 1.802-1.801c.999 0 1.801.802 1.801 1.801v7.279c.039.955-.768 1.801-1.801 1.801ZM111.091 74.931c-.307 0-.615-.077-.918-.23-.879-.5-1.148-1.61-.653-2.489l3.642-6.322c.499-.88 1.609-1.148 2.488-.654.879.495 1.148 1.61.654 2.489l-3.642 6.322c-.346.577-.956.88-1.571.88v.004ZM114.728 27.687a1.788 1.788 0 0 1-1.571-.918l-3.642-6.322a1.84 1.84 0 0 1 .654-2.489 1.84 1.84 0 0 1 2.488.654l3.642 6.322a1.84 1.84 0 0 1-.654 2.488c-.307.193-.614.27-.917.27v-.005ZM106.071 36.344c-.308 0-.615-.077-.918-.23l-6.322-3.68c-.88-.5-1.148-1.61-.654-2.49.5-.878 1.61-1.147 2.489-.653l6.322 3.642c.879.5 1.148 1.61.654 2.489-.346.576-.956.917-1.571.917v.005Z" clip-rule="evenodd"/><path fill="#032F3C" fill-rule="evenodd" d="M127.142 48.148h-11.497a1.799 1.799 0 0 1-1.801-1.802c0-1 .802-1.801 1.801-1.801h9.657V30.252c0-.994.802-1.801 1.801-1.801 1 0 1.802.802 1.802 1.801v16.094c.038.995-.769 1.802-1.763 1.802Z" clip-rule="evenodd"/><path fill="#F2A057" fill-rule="evenodd" d="M102.89 48.148h-7.278a1.8 1.8 0 0 1-1.802-1.802c0-1 .802-1.801 1.802-1.801h7.278a1.8 1.8 0 0 1 1.802 1.801c.038.995-.803 1.802-1.802 1.802ZM99.748 63.627a1.788 1.788 0 0 1-1.57-.918 1.84 1.84 0 0 1 .653-2.488l6.322-3.642c.879-.5 1.994-.192 2.488.654.5.879.193 1.993-.653 2.488l-6.322 3.642a1.697 1.697 0 0 1-.918.269v-.005Z" clip-rule="evenodd"/><path fill="#032F3C" fill-rule="evenodd" d="M126.532 17.223c-16.056 0-29.119 13.068-29.119 29.118 0 16.051 13.068 29.119 29.119 29.119 16.05 0 29.118-13.068 29.118-29.119 0-16.05-13.068-29.118-29.118-29.118Zm0 61.883c-18.05 0-32.76-14.677-32.76-32.76s14.677-32.76 32.76-32.76 32.759 14.677 32.759 32.76-14.676 32.76-32.759 32.76Z" clip-rule="evenodd"/><path fill="#A2B2BF" d="m35.374 13.955-15.632.14a5.424 5.424 0 0 0-5.376 5.471l.14 15.633a5.424 5.424 0 0 0 5.471 5.375l15.632-.14a5.424 5.424 0 0 0 5.376-5.471l-.14-15.632a5.424 5.424 0 0 0-5.471-5.376Z"/><path fill="#0397D6" d="m24.942 34.773 11.689-.106a1.457 1.457 0 0 0 1.21-2.248l-5.923-9.186a1.457 1.457 0 0 0-2.465.024l-5.76 9.287c-.606.975.105 2.238 1.254 2.229h-.005Z"/><path fill="#EDF2F4" d="m20.027 34.82 8.264-.071a1.03 1.03 0 0 0 .855-1.59l-4.19-6.49a1.033 1.033 0 0 0-1.743.014l-4.074 6.567c-.428.692.072 1.58.884 1.576l.004-.005Z"/><path fill="#F2A057" d="M22.18 23.243a2.176 2.176 0 1 0 0-4.353 2.176 2.176 0 0 0 0 4.353Z"/><path fill="#A2B2BF" d="m60.35 13.959-8.998.08a3.733 3.733 0 0 0-3.7 3.766l.08 8.998a3.733 3.733 0 0 0 3.766 3.7l8.998-.08a3.733 3.733 0 0 0 3.7-3.767l-.08-8.998a3.733 3.733 0 0 0-3.767-3.7Z"/><path fill="#0397D6" d="m52.585 26.913 10.56-.091-5.357-8.302-5.203 8.393Z"/><path fill="#EDF2F4" d="m50.01 26.942 7.466-.067-3.786-5.871-3.68 5.938Z"/><path fill="#F2A057" d="M52.513 19.726a1.35 1.35 0 1 0 0-2.7 1.35 1.35 0 0 0 0 2.7Z"/></svg>