<svg xmlns="http://www.w3.org/2000/svg" width="231.954" height="48.456"><script/><script/><script/><g data-name="Group 9104"><g data-name="Group 1727"><g data-name="Group 1726"><g data-name="Group 81"><g data-name="Group 9081"><circle cx="3.184" cy="3.184" r="3.184" fill="#0397d6" data-name="Ellipse 3" transform="translate(21.043 42.088)"/><circle cx="3.184" cy="3.184" r="3.184" fill="#0397d6" data-name="Ellipse 4" transform="translate(21.043)"/><path fill="#032f3c" d="M31.933 27.32h4.685a3.184 3.184 0 0 0 0-6.368h-4.685l9.406-9.424a3.2 3.2 0 0 0 0-4.52 3.2 3.2 0 0 0-4.52 0l-9.406 9.406v-4.666a3.184 3.184 0 1 0-6.368 0v4.685l-9.406-9.406a3.2 3.2 0 0 0-4.52 0 3.2 3.2 0 0 0 0 4.52l9.406 9.406h-4.666a3.184 3.184 0 0 0 0 6.368h4.685l-9.406 9.387a3.2 3.2 0 0 0 0 4.52 3.2 3.2 0 0 0 4.52 0l9.406-9.406v4.685a3.184 3.184 0 1 0 6.368 0v-4.685l9.406 9.406a3.2 3.2 0 0 0 4.52 0 3.2 3.2 0 0 0 0-4.52Zm-7.7 0a3.184 3.184 0 1 1 3.184-3.184 3.186 3.186 0 0 1-3.188 3.184Z" data-name="Path 35"/><circle cx="3.184" cy="3.184" r="3.184" fill="#0397d6" data-name="Ellipse 5" transform="translate(0 21.044)"/><circle cx="3.184" cy="3.184" r="3.184" fill="#0397d6" data-name="Ellipse 6" transform="translate(42.089 21.044)"/></g><g data-name="Group 9082"><path fill="#6a747c" stroke="#6a747c" stroke-linecap="round" stroke-width=".5" d="M57.641 32.622a6.741 6.741 0 0 0 1.789-.183 1.277 1.277 0 0 0 .8-.734 5.36 5.36 0 0 0 .229-1.766V14.045h2.614l.023 16.146a6.266 6.266 0 0 1-.6 3.073 2.717 2.717 0 0 1-1.72 1.33 12.322 12.322 0 0 1-3.142.321Z" data-name="Path 36"/><path fill="#6a747c" stroke="#6a747c" stroke-linecap="round" stroke-width=".5" d="M69.774 32.555a5.73 5.73 0 0 1-2.385-3.119 17.471 17.471 0 0 1-.734-5.55 17.928 17.928 0 0 1 .734-5.573 5.791 5.791 0 0 1 2.385-3.211 10.006 10.006 0 0 1 8.944 0 5.872 5.872 0 0 1 2.385 3.211 17.938 17.938 0 0 1 .734 5.619 17.391 17.391 0 0 1-.711 5.527 5.7 5.7 0 0 1-2.362 3.119 8.511 8.511 0 0 1-4.518 1.009 8.891 8.891 0 0 1-4.472-1.032Zm7.476-2.064a3.94 3.94 0 0 0 1.468-2.293 17.475 17.475 0 0 0 .436-4.289 17.115 17.115 0 0 0-.436-4.358 4.385 4.385 0 0 0-1.491-2.431 5.915 5.915 0 0 0-5.871 0 4.159 4.159 0 0 0-1.491 2.408 17 17 0 0 0-.436 4.358 16.146 16.146 0 0 0 .436 4.243 4.062 4.062 0 0 0 1.468 2.339 5.017 5.017 0 0 0 2.981.78 5.378 5.378 0 0 0 2.941-.757Z" data-name="Path 37"/><path fill="#0397d6" d="M89.449 7.817h1v33.938h-1Z" data-name="Path 38"/><path fill="#6a747c" stroke="#6a747c" stroke-linecap="round" stroke-width=".5" d="M109.528 29.587h-7.66l-1.193 4.426h-2.614l4.908-18.944h5.458l4.908 18.944h-2.614Zm-7.109-2.339h6.559l-2.569-9.931h-1.422Z" data-name="Path 39"/><path fill="#6a747c" stroke="#6a747c" stroke-linecap="round" stroke-width=".5" d="M121.35 32.508a5.53 5.53 0 0 1-2.152-3.162 20.744 20.744 0 0 1-.6-5.481 21.649 21.649 0 0 1 .6-5.619 5.617 5.617 0 0 1 2.133-3.142 7.652 7.652 0 0 1 4.33-1.058 25.248 25.248 0 0 1 5.275.665l-.092 2.179a25.912 25.912 0 0 0-4.679-.459 5.542 5.542 0 0 0-3.119.734 3.649 3.649 0 0 0-1.4 2.362 22.855 22.855 0 0 0-.321 4.7 18.683 18.683 0 0 0 .344 4.105 3.478 3.478 0 0 0 1.4 2.179 5.812 5.812 0 0 0 3.234.734 29.068 29.068 0 0 0 4.541-.459l.092 2.225a25.921 25.921 0 0 1-5.091.6 7.743 7.743 0 0 1-4.495-1.103Z" data-name="Path 40"/><path fill="#6a747c" stroke="#6a747c" stroke-linecap="round" stroke-width=".5" d="M147.667 29.587h-7.66l-1.192 4.426H136.2l4.907-18.944h5.458l4.908 18.944h-2.615Zm-7.109-2.339h6.559l-2.568-9.931h-1.422Z" data-name="Path 41"/><path fill="#6a747c" stroke="#6a747c" stroke-linecap="round" stroke-width=".5" d="M167.929 16.239a5.881 5.881 0 0 1 2.179 3.1 16.823 16.823 0 0 1 .573 4.793 18.413 18.413 0 0 1-.734 5.688 6 6 0 0 1-2.339 3.188 7.7 7.7 0 0 1-4.243 1.009h-6.627V15.069h6.628a7.67 7.67 0 0 1 4.563 1.17Zm-1.032 13.623a11.654 11.654 0 0 0 1.078-5.688 14.2 14.2 0 0 0-.459-3.945 3.824 3.824 0 0 0-1.468-2.179 4.731 4.731 0 0 0-2.706-.688h-3.99v14.307h3.99a3.723 3.723 0 0 0 3.555-1.807Z" data-name="Path 42"/><path fill="#6a747c" stroke="#6a747c" stroke-linecap="round" stroke-width=".5" d="M178.582 17.385v5.894h7.431v2.29h-7.431v6.147h9.082v2.293h-11.719v-18.94h11.719v2.316Z" data-name="Path 43"/><path fill="#6a747c" stroke="#6a747c" stroke-linecap="round" stroke-width=".5" d="M211.686 15.069v18.944h-2.637V17.936h-.413l-4.931 15.32h-2.8l-4.954-15.32h-.39v16.077h-2.634V15.069h4.633l4.77 15.435 4.724-15.435Z" data-name="Path 44"/><path fill="#6a747c" stroke="#6a747c" stroke-linecap="round" stroke-width=".5" d="m222.913 26.124-5.963-11.055h2.935l4.358 8.44 4.307-8.44h2.981l-5.963 11.055v7.867h-2.637v-7.867Z" data-name="Path 45"/></g></g></g></g></g></svg>