<svg xmlns="http://www.w3.org/2000/svg" width="322" height="428" fill="none"><script/><script/><script/><mask id="a" width="322" height="428" x="0" y="0" maskUnits="userSpaceOnUse" style="mask-type:alpha"><path fill="#D9D9D9" d="M0 0h322v428H0z"/></mask><g stroke="#1A428A" stroke-width="2.00095" mask="url(#a)"><path d="M301.782 203.394c.203 14.587 12.939 26.578 28.446 26.784 15.507.206 27.912-11.453 27.709-26.04-.204-14.586-12.94-26.578-28.447-26.784-15.507-.205-27.912 11.453-27.708 26.04Z"/><path d="m117.924 264.84.543 38.855c-.001 3.497.737 6.979 2.171 10.242 1.434 3.264 3.535 6.245 6.182 8.769 2.647 2.525 5.786 4.543 9.236 5.938 3.45 1.395 7.141 2.139 10.86 2.189 3.719.049 7.391-.597 10.803-1.901 3.412-1.304 6.496-3.24 9.073-5.696 2.577-2.455 4.596-5.381 5.939-8.608 1.344-3.227 1.985-6.69 1.886-10.188l-.543-38.856 84.189 79.12c5.362 5.028 12.566 7.906 20.035 8.005 7.47.1 14.596-2.589 19.82-7.476 5.201-4.909 8.066-11.61 7.968-18.637-.099-7.026-3.152-13.806-8.491-18.855l-84.023-79.103 41.151.545c3.719.096 7.401-.503 10.832-1.764 3.432-1.26 6.545-3.156 9.157-5.578 2.613-2.422 4.674-5.321 6.064-8.53 1.389-3.208 2.08-6.662 2.031-10.16-.049-3.498-.836-6.971-2.316-10.218-1.48-3.246-3.622-6.201-6.304-8.693-2.681-2.492-5.848-4.472-9.316-5.824-3.468-1.352-7.168-2.049-10.886-2.052l-41.321-.548 81.853-76.9274c5.201-4.9092 8.066-11.6102 7.968-18.6366-.098-7.0263-3.152-13.8058-8.491-18.8548-5.363-5.0278-12.567-7.9062-20.036-8.0053-7.47-.099-14.596 2.5893-19.82 7.4768l-81.843 76.9133-.541-38.709c.001-3.4972-.737-6.9787-2.171-10.2423-1.434-3.2636-3.535-6.2442-6.182-8.7689-2.647-2.5247-5.786-4.5432-9.236-5.9382-3.45-1.395-7.141-2.1387-10.86-2.188-3.719-.0493-7.391.5967-10.803 1.9007-3.412 1.304-6.496 3.2399-9.073 5.6954-2.577 2.4554-4.596 5.3814-5.94 8.6082-1.343 3.2267-1.984 6.6899-1.885 10.1884l.543 38.8697-83.8674-79.1204c-5.3624-5.0278-12.5665-7.9062-20.0359-8.0053-7.46948-.099-14.5959 2.5893-19.81974 7.4768-5.20076 4.9092-8.06556 11.6102-7.96736 18.6365.0981 7.0264 3.1511 13.8058 8.49095 18.8548L76.9751 174.154l-41.3059-.548c-7.3797-.005-14.3855 2.725-19.501 7.599-5.1156 4.874-7.92939 11.499-7.83242 18.443.09698 6.944 3.09692 13.647 8.35052 18.658 5.2536 5.012 12.3383 7.928 19.7205 8.119l41.3059.548-81.84839 76.918c-5.20075 4.909-8.06551 11.61-7.96741 18.637.0981 7.026 3.15118 13.805 8.491 18.854 5.36232 5.028 12.56648 7.907 20.0359 8.006 7.4695.099 14.5959-2.59 19.8197-7.477l81.6805-77.071Zm-.892-63.899c-.071-5.223 1.506-10.307 4.532-14.608 3.026-4.302 7.364-7.627 12.467-9.557 5.103-1.93 10.741-2.376 16.201-1.284 5.46 1.092 10.497 3.675 14.474 7.421 3.977 3.746 6.716 8.488 7.87 13.626 1.155 5.137.672 10.44-1.386 15.237-2.058 4.798-5.599 8.874-10.176 11.715-4.576 2.84-9.983 4.317-15.536 4.244-7.449-.105-14.629-2.988-19.963-8.015-5.334-5.027-8.386-11.786-8.483-18.793v.014Z"/><path d="M113.776 26.3728c.203 14.587 12.939 26.5787 28.446 26.7843 15.507.2057 27.913-11.4527 27.709-26.0396-.204-14.5869-12.94-26.578698-28.447-26.784337C125.978.127524 113.572 11.7859 113.776 26.3728ZM118.658 375.487c.204 14.587 12.94 26.579 28.446 26.785 15.507.205 27.913-11.453 27.709-26.04-.204-14.587-12.939-26.579-28.446-26.784-15.507-.206-27.913 11.452-27.709 26.039Z"/></g></svg>