<svg xmlns="http://www.w3.org/2000/svg" width="173" height="210" fill="none"><script/><script/><script/><mask id="a" width="173" height="210" x="0" y="0" maskUnits="userSpaceOnUse" style="mask-type:luminance"><path fill="#fff" d="M172.888.723633H0V209.974h172.888V.723633Z"/></mask><g stroke="#fff" stroke-width="2.00095" mask="url(#a)" opacity=".353"><path d="M129.792 94.2286c1.633 7.1904 9.19 11.7814 16.878 10.2544 7.689-1.528 12.597-8.5953 10.964-15.7859-1.633-7.1907-9.19-11.7816-16.878-10.2541-7.689 1.5275-12.598 8.595-10.964 15.7856Z"/><path d="m45.3447 143.925 4.3505 19.154c.367 1.729 1.0976 3.373 2.1494 4.836 1.0519 1.463 2.404 2.715 3.9778 3.686 1.5738.97 3.3381 1.638 5.1903 1.965 1.8521.328 3.7554.307 5.5992-.059 1.8438-.366 3.5915-1.071 5.1415-2.075 1.55-1.003 2.8715-2.284 3.8877-3.769 1.0162-1.485 1.707-3.143 2.0321-4.88.3251-1.736.2782-3.516-.1381-5.235l-4.3505-19.154 49.9364 30.273c3.18 1.923 7.044 2.589 10.747 1.853 3.704-.736 6.945-2.813 9.014-5.779 2.056-2.973 2.768-6.587 1.981-10.051-.786-3.464-3.008-6.495-6.179-8.43l-49.8526-30.283 20.4026-4.053c1.849-.344 3.607-1.027 5.171-2.011 1.564-.983 2.904-2.248 3.941-3.72s1.752-3.122 2.102-4.854c.35-1.7324.328-3.5124-.063-5.2368-.392-1.7245-1.146-3.359-2.219-4.8086-1.072-1.4496-2.442-2.6856-4.03-3.636-1.587-.9504-3.361-1.5964-5.218-1.9005-1.857-.3041-3.759-.2602-5.598.1291l-20.4872 4.0704 32.3882-46.6341c2.055-2.9736 2.768-6.5877 1.981-10.0513-.787-3.4636-3.009-6.4948-6.179-8.4301-3.18-1.9225-7.044-2.5887-10.747-1.853-3.7038.7358-6.9448 2.8137-9.0141 5.779l-32.3843 46.626-4.3341-19.0817c-.367-1.7292-1.0977-3.373-2.1495-4.8359-1.0518-1.4629-2.4039-2.7159-3.9777-3.6861-1.5739-.9702-3.3381-1.6383-5.1903-1.9656-1.8522-.3272-3.7555-.3071-5.5993.0592-1.8438.3663-3.5914 1.0715-5.1415 2.0747-1.55 1.0032-2.8714 2.2844-3.8877 3.7692-1.0162 1.4848-1.7069 3.1435-2.0321 4.88-.3251 1.7365-.2781 3.5161.1381 5.2355l4.3521 19.1609-49.7779-30.3075c-3.1795-1.9224-7.0437-2.5887-10.7472-1.8529-3.7034.7357-6.9444 2.8136-9.0137 5.7789-2.0556 2.9736-2.7679 6.5877-1.9812 10.0513.7867 3.4637 3.0084 6.4948 6.179 8.4301L15.5711 103.39l-20.47998 4.069c-3.64918.773-6.82612 2.859-8.84332 5.806s-2.7122 6.519-1.9348 9.941c.7775 3.423 2.9649 6.422 6.08892 8.348 3.12399 1.926 6.9332 2.624 10.60317 1.942l20.48001-4.068-32.3863 46.628c-2.0556 2.974-2.768 6.588-1.9813 10.052.7867 3.463 3.00849 6.495 6.17904 8.43 3.17946 1.922 7.043743 2.589 10.74718 1.853 3.70344-.736 6.94438-2.814 9.01368-5.779l32.2873-46.687Zm-7.1545-31.499c-.5839-2.575-.3382-5.254.7059-7.699 1.0441-2.444 2.8397-4.544 5.1599-6.0346 2.3202-1.4901 5.0607-2.3033 7.8751-2.3369 2.8143-.0335 5.5761.7142 7.9362 2.1485 2.36 1.4343 4.2123 3.491 5.3227 5.91 1.1103 2.419 1.4289 5.091.9154 7.679-.5135 2.588-1.836 4.976-3.8003 6.861-1.9643 1.885-4.4823 3.184-7.2354 3.731-3.694.73-7.547.059-10.7124-1.865-3.1654-1.925-5.3841-4.947-6.1687-8.401l.0016.007Z"/><path d="M18.2399 26.4581c1.6332 7.1907 9.19 11.7816 16.8784 10.2541 7.6885-1.5275 12.5972-8.595 10.964-15.7856-1.6333-7.1907-9.19-11.78158-16.8785-10.2541-7.6884 1.5275-12.5972 8.595-10.9639 15.7856ZM57.3323 198.554c1.6333 7.19 9.19 11.781 16.8785 10.254 7.6884-1.528 12.5972-8.595 10.9639-15.786-1.6332-7.19-9.19-11.781-16.8784-10.254-7.6885 1.528-12.5972 8.595-10.964 15.786Z"/></g></svg>