<svg xmlns="http://www.w3.org/2000/svg" width="29.63" height="19.029"><script/><script/><script/><g fill="#327bf9" data-name="close copy 2"><path d="M22.941 0a6.783 6.783 0 0 0-6.77 6.85 6.885 6.885 0 0 0 6.89 6.85c.038 0 .095-.005.133-.006a8.678 8.678 0 0 1-5.431 1.909 1.708 1.708 0 0 0-1.708 1.713 1.585 1.585 0 0 0 1.555 1.713A12.059 12.059 0 0 0 29.631 6.85 6.714 6.714 0 0 0 22.941 0Z" data-name="Path 33773"/><path d="M6.9 0A6.787 6.787 0 0 0 .12 6.85a6.883 6.883 0 0 0 6.888 6.85c.038 0 .094-.005.131-.006a8.68 8.68 0 0 1-5.432 1.909A1.709 1.709 0 0 0 0 17.316a1.592 1.592 0 0 0 1.564 1.713A12.067 12.067 0 0 0 13.594 6.85 6.722 6.722 0 0 0 6.9 0Z" data-name="Path 33774"/></g></svg>