<svg xmlns="http://www.w3.org/2000/svg" width="117" height="111" fill="none"><path fill="#A2B2BF" d="M107.211 24.84H10.099c-5.346 0-9.68 4.333-9.68 9.68v54.176c0 5.347 4.334 9.681 9.68 9.681h97.112c5.346 0 9.681-4.334 9.681-9.68V34.52c0-5.347-4.335-9.68-9.681-9.68Z"/><path fill="#EDF2F4" d="M104.676 29.383H12.631a6.872 6.872 0 0 0-6.872 6.872V86.97a6.872 6.872 0 0 0 6.872 6.872h92.045a6.871 6.871 0 0 0 6.871-6.872V36.255a6.871 6.871 0 0 0-6.871-6.872Z"/><path fill="#F2A057" d="M78.214 41.022H39.598a2.017 2.017 0 1 0 0 4.034h38.616a2.017 2.017 0 0 0 0-4.034ZM103.646 77.29H90.53a1.382 1.382 0 1 0 0 2.763h13.116a1.381 1.381 0 1 0 0-2.764ZM26.776 77.29H13.66a1.382 1.382 0 1 0 0 2.763h13.116a1.382 1.382 0 0 0 0-2.764Z"/><path fill="#032F3C" d="M85.828 54.662h-54.13a1.493 1.493 0 1 0 0 2.983h54.13a1.493 1.493 0 1 0 0-2.983ZM85.828 64.16h-54.13a1.493 1.493 0 1 0 0 2.984h54.13a1.493 1.493 0 1 0 0-2.984ZM58.653 23.79l-16.154-6.905v12.498l6.635 1.934a48.818 48.818 0 0 0 18.988.008l6.69-1.942V16.885l-16.155 6.904h-.004Z"/><path fill="#032F3C" d="M58.653 22.74 32.054 11.37 58.653 0l26.598 11.37-26.598 11.37Z"/><path fill="#F2A057" d="M58.653 13.08c1.336 0 2.42-.766 2.42-1.71s-1.084-1.71-2.42-1.71c-1.336 0-2.42.766-2.42 1.71s1.084 1.71 2.42 1.71Z"/><path fill="#F2A057" d="m79.774 24.926-1.701 1.656V14.519l-19.449-2.963.058-.377 19.773 3.012 1.32 10.735Z"/><path fill="#032F3C" d="m73.82 106.045-5.818-.697L66.458 111 57.69 97.983l7.362-4.955 8.768 13.017Z"/><path fill="#032F3C" d="m50.848 111-1.544-5.652-5.817.697 8.767-13.017 7.362 4.955L50.848 111Z"/><path fill="#0397D6" d="M58.653 99.996c5.826 0 10.548-4.723 10.548-10.549 0-5.825-4.722-10.548-10.548-10.548-5.825 0-10.548 4.723-10.548 10.548 0 5.826 4.723 10.549 10.548 10.549Z"/><path fill="#032F3C" d="M58.653 95.945a6.498 6.498 0 1 0 0-12.996 6.498 6.498 0 0 0 0 12.996Z"/><path fill="#F2A057" d="M58.653 92.568a3.12 3.12 0 1 0 0-6.241 3.12 3.12 0 0 0 0 6.24Z"/></svg>