<svg xmlns="http://www.w3.org/2000/svg" width="108" height="104" fill="none"><path fill="#F2A057" d="M86.636 103.29h6.304l-3.89-17.978H74.96l11.676 17.978ZM20.476 103.29h-6.304l3.892-17.979h14.087L20.476 103.29Z"/><path fill="#A2B2BF" d="M4.815 4.922v73.634a6.758 6.758 0 0 0 6.759 6.76h41.204v3.943a3.523 3.523 0 0 0-2.742 3.43c0 1.94 1.58 3.52 3.52 3.52s3.52-1.58 3.52-3.52a3.523 3.523 0 0 0-2.742-3.43v-3.944H95.54a6.759 6.759 0 0 0 6.76-6.759V4.922H4.815ZM55.52 92.689a1.966 1.966 0 0 1-1.964 1.964 1.966 1.966 0 0 1-1.964-1.964c0-1.081.883-1.964 1.964-1.964a1.961 1.961 0 0 1 1.964 1.964Z"/><path fill="#EDF2F4" d="M91.474 81.002H15.638a6.759 6.759 0 0 1-6.76-6.759V9.231h89.355v65.012a6.758 6.758 0 0 1-6.76 6.76Z"/><path fill="#F2A057" d="M102.382.193H4.729A4.727 4.727 0 0 0 0 4.922 4.727 4.727 0 0 0 4.729 9.65h97.653a4.727 4.727 0 0 0 4.729-4.73 4.727 4.727 0 0 0-4.729-4.728Z"/><path fill="#032F3C" fill-rule="evenodd" d="M56.889 22.776a21.7 21.7 0 0 1 12.18 5.966 21.79 21.79 0 0 1 5.57 8.987l-.475-.303a1.577 1.577 0 0 0-1.704 2.652l3.699 2.373c.735.47 1.703.256 2.177-.475l2.373-3.698a1.577 1.577 0 0 0-.475-2.178 1.578 1.578 0 0 0-2.177.474l-.327.51a24.922 24.922 0 0 0-6.472-10.598 24.892 24.892 0 0 0-13.942-6.829 1.58 1.58 0 0 0-1.777 1.346 1.579 1.579 0 0 0 1.35 1.773ZM29.681 52.142l.33-.513a24.92 24.92 0 0 0 6.37 10.504 24.878 24.878 0 0 0 14.044 6.93 1.58 1.58 0 0 0 1.777-1.345 1.58 1.58 0 0 0-1.345-1.778A21.735 21.735 0 0 1 38.59 59.89a21.808 21.808 0 0 1-5.48-8.898l.47.3a1.577 1.577 0 0 0 1.703-2.652l-3.697-2.373a1.577 1.577 0 0 0-2.178.474l-2.372 3.699a1.577 1.577 0 0 0 .474 2.178 1.57 1.57 0 0 0 2.17-.475ZM61.653 68.55l-.514-.33a24.936 24.936 0 0 0 10.52-6.383 24.88 24.88 0 0 0 6.919-14.031 1.58 1.58 0 0 0-1.346-1.777 1.58 1.58 0 0 0-1.777 1.345 21.71 21.71 0 0 1-6.04 12.254 21.778 21.778 0 0 1-8.914 5.492l.3-.47a1.577 1.577 0 0 0-2.652-1.704l-2.373 3.698a1.577 1.577 0 0 0 .475 2.178l3.698 2.372c.735.47 1.704.257 2.178-.474a1.568 1.568 0 0 0-.474-2.17ZM46.089 20.166l.51.327a25.004 25.004 0 0 0-10.68 6.55 24.858 24.858 0 0 0-6.751 13.86 1.58 1.58 0 0 0 1.345 1.777 1.58 1.58 0 0 0 1.777-1.346 21.706 21.706 0 0 1 5.904-12.114 21.792 21.792 0 0 1 9.05-5.627l-.296.466a1.577 1.577 0 0 0 2.652 1.703l2.373-3.698a1.577 1.577 0 0 0-.475-2.177L47.8 17.514a1.577 1.577 0 0 0-2.178.475 1.564 1.564 0 0 0 .467 2.177Z" clip-rule="evenodd"/><path fill="#0397D6" d="M54.365 59.442c8.312 0 15.05-6.739 15.05-15.05 0-8.313-6.738-15.051-15.05-15.051-8.313 0-15.05 6.738-15.05 15.05 0 8.312 6.737 15.05 15.05 15.05Z"/><path fill="#fff" d="m54.512 47.615-6.79-2.901v5.254l2.789.813c2.633.525 5.347.525 7.98.004l2.812-.817v-5.254l-6.79 2.901Z"/><path fill="#fff" d="m54.512 47.172-11.18-4.78 11.18-4.78 11.181 4.78-11.18 4.78Z"/><path fill="#032F3C" d="M54.513 43.112c.562 0 1.018-.322 1.018-.72 0-.397-.456-.72-1.018-.72-.563 0-1.02.323-1.02.72 0 .398.457.72 1.02.72Z"/><path fill="#032F3C" d="m63.391 48.094-.715.692v-5.068L54.5 42.47l.023-.155 8.31 1.263.557 4.516Z"/></svg>