<svg xmlns="http://www.w3.org/2000/svg" width="170" height="118" fill="none"><path fill="#A2B2BF" d="M158.86 0H11.82C5.682 0 .706 4.976.706 11.114v95.772C.706 113.024 5.682 118 11.82 118h147.04c6.138 0 11.114-4.976 11.114-11.114V11.114C169.974 4.976 164.998 0 158.86 0Z"/><path fill="#EDF2F4" d="M158.818 3.535H11.863a7.889 7.889 0 0 0-7.889 7.889v95.157a7.889 7.889 0 0 0 7.889 7.889h146.955a7.889 7.889 0 0 0 7.888-7.889V11.424a7.889 7.889 0 0 0-7.888-7.89Z"/><path fill="#A2B2BF" d="M13.93 8.403h74.664a4.71 4.71 0 0 1 4.707 4.707v92.547a2.372 2.372 0 0 1-2.373 2.372H11.596a2.372 2.372 0 0 1-2.372-2.372V13.11a4.71 4.71 0 0 1 4.707-4.707ZM158.284 77.698H100.57a2.372 2.372 0 0 0-2.372 2.372v25.587a2.372 2.372 0 0 0 2.372 2.372h57.714a2.372 2.372 0 0 0 2.372-2.372V80.07a2.372 2.372 0 0 0-2.372-2.372Z"/><path fill="#F2A057" d="M158.284 43.05H100.57a2.372 2.372 0 0 0-2.372 2.373V71.01a2.372 2.372 0 0 0 2.372 2.372h57.714a2.372 2.372 0 0 0 2.372-2.372V45.423a2.372 2.372 0 0 0-2.372-2.372Z"/><path fill="#A2B2BF" d="M158.284 8.403H100.57a2.372 2.372 0 0 0-2.372 2.373v25.586a2.372 2.372 0 0 0 2.372 2.373h57.714a2.372 2.372 0 0 0 2.372-2.373V10.776a2.372 2.372 0 0 0-2.372-2.373Z"/><path fill="#032F3C" d="M81.83 28.855c-3.83 0-6.942-3.116-6.942-6.946 0-3.83 3.116-6.946 6.941-6.946 3.826 0 6.946 3.116 6.946 6.946a6.953 6.953 0 0 1-6.946 6.946Zm0-13.406a6.473 6.473 0 0 0-6.465 6.465 6.473 6.473 0 0 0 6.464 6.464 6.473 6.473 0 0 0 6.465-6.464 6.473 6.473 0 0 0-6.465-6.465Z"/><path fill="#032F3C" d="M80.067 19.76v4.302c0 .424.467.681.824.453l3.396-2.149a.534.534 0 0 0 0-.905l-3.396-2.148a.537.537 0 0 0-.824.452v-.005Z"/><path fill="#F2A057" d="M57.038 72.277H45.481v16.316h11.557V72.277Z"/><path fill="#F2A057" d="M51.26 74.416c9.998 0 18.103-8.105 18.103-18.103 0-9.998-8.105-18.102-18.103-18.102-9.998 0-18.102 8.105-18.102 18.102 0 9.998 8.104 18.103 18.102 18.103Z"/><path fill="#032F3C" d="m54.852 77.679-3.592 8.308-3.592-8.308C32.481 79.461 20.69 92.366 20.69 108.034h61.14c0-15.668-11.786-28.573-26.978-30.355ZM64.308 36.477a16.075 16.075 0 0 0-6.44-5.293H44.652a16.075 16.075 0 0 0-6.441 5.293 8.813 8.813 0 0 0-7.432 8.703 8.814 8.814 0 0 0 16.369 4.545 8.781 8.781 0 0 0 4.111 1.015 8.78 8.78 0 0 0 4.111-1.015 8.812 8.812 0 0 0 7.556 4.268c.79 0 1.557-.105 2.286-.3a8.813 8.813 0 0 0-.905-17.216ZM51.26 14.968a8.811 8.811 0 0 0-8.813 8.813 8.783 8.783 0 0 0 3.368 6.927 15.973 15.973 0 0 1 2.825-.734 15.868 15.868 0 0 1 5.25 0c.971.162 1.92.405 2.824.734a8.783 8.783 0 0 0 3.368-6.927 8.811 8.811 0 0 0-8.813-8.813h-.01Z"/><path fill="#F2A057" d="M56.71 30.708a15.966 15.966 0 0 0-2.825-.734 15.859 15.859 0 0 0-5.25 0c-.972.162-1.92.405-2.825.734-.395.143-.781.305-1.157.476h13.214a16.385 16.385 0 0 0-1.157-.476ZM119.316 96.925h-3.592v5.069h3.592v-5.07Z"/><path fill="#F2A057" d="M117.515 97.587a5.62 5.62 0 1 0 0-11.243 5.621 5.621 0 0 0 0 11.243Z"/><path fill="#0397D6" d="m118.635 98.602-1.115 2.582-1.115-2.582c-4.716.552-8.379 4.563-8.379 9.427h18.993c0-4.868-3.663-8.875-8.38-9.427h-.004ZM121.569 85.806a4.988 4.988 0 0 0-2.001-1.644h-4.106a4.988 4.988 0 0 0-2.001 1.644 2.738 2.738 0 0 0-.281 5.35 2.75 2.75 0 0 0 3.058-1.229 2.74 2.74 0 0 0 2.554 0 2.733 2.733 0 0 0 3.058 1.229 2.742 2.742 0 0 0 2.03-2.644 2.743 2.743 0 0 0-2.311-2.706ZM117.515 79.122a2.74 2.74 0 0 0-1.691 4.893c.281-.1.576-.176.876-.229.267-.043.539-.067.815-.067.276 0 .548.024.815.067.305.048.595.129.876.229a2.739 2.739 0 0 0-1.691-4.892Z"/><path fill="#F2A057" d="M119.211 84.015a5.367 5.367 0 0 0-.877-.229 5.11 5.11 0 0 0-.814-.067c-.277 0-.548.024-.815.067a4.824 4.824 0 0 0-.876.229c-.124.043-.243.095-.362.147h4.106c-.119-.052-.238-.104-.362-.147Z"/><path fill="#0397D6" d="M119.316 62.35h-3.592v5.068h3.592v-5.069Z"/><path fill="#0397D6" d="M117.515 63.011a5.62 5.62 0 1 0 0-11.241 5.62 5.62 0 0 0 0 11.241Z"/><path fill="#032F3C" d="m118.635 64.026-1.115 2.582-1.115-2.582c-4.716.553-8.379 4.564-8.379 9.428h18.993c0-4.87-3.663-8.875-8.38-9.428h-.004ZM121.569 51.225a4.988 4.988 0 0 0-5.745-1.79 4.988 4.988 0 0 0-2.363 1.791 2.738 2.738 0 0 0-.281 5.35 2.737 2.737 0 0 0 3.054-1.23 2.738 2.738 0 0 0 2.553 0 2.74 2.74 0 0 0 3.058 1.23 2.74 2.74 0 0 0 2.03-2.645 2.742 2.742 0 0 0-2.311-2.706h.005Z"/><path fill="#F2A057" d="M119.316 27.63h-3.592V32.7h3.592V27.63Z"/><path fill="#F2A057" d="M117.515 28.292a5.62 5.62 0 1 0 0-11.241 5.62 5.62 0 0 0 0 11.241Z"/><path fill="#0397D6" d="m118.635 29.307-1.115 2.582-1.115-2.582c-4.716.553-8.379 4.564-8.379 9.428h18.993c0-4.869-3.663-8.875-8.38-9.428h-.004ZM121.569 16.511a4.987 4.987 0 0 0-2.001-1.643c-.119-.053-.238-.105-.362-.148a5.372 5.372 0 0 0-.876-.229 5.133 5.133 0 0 0-.815-.066c-.276 0-.548.024-.815.066a4.837 4.837 0 0 0-.876.23 4.987 4.987 0 0 0-2.363 1.791 2.738 2.738 0 0 0-.281 5.35 2.737 2.737 0 0 0 3.054-1.229c.381.2.814.314 1.276.314.462 0 .896-.115 1.277-.315a2.74 2.74 0 0 0 3.058 1.23 2.74 2.74 0 0 0 2.03-2.645 2.742 2.742 0 0 0-2.311-2.706h.005ZM142.94 26.749a4.782 4.782 0 0 1-4.774-4.773 4.782 4.782 0 0 1 4.774-4.774 4.782 4.782 0 0 1 4.773 4.773 4.782 4.782 0 0 1-4.773 4.774Zm0-9.218a4.45 4.45 0 0 0-4.445 4.445 4.446 4.446 0 0 0 4.445 4.444 4.446 4.446 0 0 0 4.444-4.445 4.446 4.446 0 0 0-4.444-4.444Z"/><path fill="#0397D6" d="M141.725 20.499v2.958c0 .29.319.467.567.31l2.334-1.477a.37.37 0 0 0 0-.624l-2.334-1.477a.368.368 0 0 0-.567.31ZM152.796 30.64h-19.717a.51.51 0 1 0 0 1.02h19.717a.51.51 0 1 0 0-1.02ZM152.796 32.666h-19.717a.51.51 0 1 0 0 1.019h19.717a.51.51 0 1 0 0-1.02ZM152.796 34.69h-19.717a.51.51 0 1 0 0 1.02h19.717a.51.51 0 1 0 0-1.02Z"/><path fill="#032F3C" d="M142.94 59.295a4.782 4.782 0 0 1-4.774-4.773 4.782 4.782 0 0 1 4.774-4.773 4.782 4.782 0 0 1 4.773 4.773 4.782 4.782 0 0 1-4.773 4.773Zm0-9.218a4.45 4.45 0 0 0-4.445 4.445 4.446 4.446 0 0 0 4.445 4.445 4.446 4.446 0 0 0 4.444-4.445 4.446 4.446 0 0 0-4.444-4.445Z"/><path fill="#032F3C" d="M141.725 53.04V56c0 .29.319.467.567.31l2.334-1.477a.37.37 0 0 0 0-.624l-2.334-1.477a.368.368 0 0 0-.567.31ZM152.796 63.188h-19.717a.51.51 0 1 0 0 1.019h19.717a.51.51 0 1 0 0-1.02ZM152.796 65.212h-19.717a.51.51 0 1 0 0 1.02h19.717a.51.51 0 1 0 0-1.02ZM152.796 67.232h-19.717a.51.51 0 1 0 0 1.02h19.717a.51.51 0 1 0 0-1.02Z"/><path fill="#0397D6" d="M142.94 93.71a4.782 4.782 0 0 1-4.774-4.774 4.782 4.782 0 0 1 4.774-4.774 4.782 4.782 0 0 1 4.773 4.774 4.782 4.782 0 0 1-4.773 4.773Zm0-9.219a4.45 4.45 0 0 0-4.445 4.445 4.446 4.446 0 0 0 4.445 4.444 4.446 4.446 0 0 0 4.444-4.444 4.446 4.446 0 0 0-4.444-4.445Z"/><path fill="#0397D6" d="M141.725 87.454v2.959c0 .29.319.466.567.31l2.334-1.477a.37.37 0 0 0 0-.625l-2.334-1.476a.368.368 0 0 0-.567.31ZM152.796 97.601h-19.717a.51.51 0 1 0 0 1.02h19.717a.51.51 0 1 0 0-1.02ZM152.796 99.621h-19.717a.51.51 0 1 0 0 1.02h19.717a.51.51 0 0 0 0-1.02ZM152.796 101.646h-19.717a.51.51 0 1 0 0 1.019h19.717a.51.51 0 1 0 0-1.019Z"/></svg>